<svg width="1280" height="720" xmlns="http://www.w3.org/2000/svg" xmlns:xlink="http://www.w3.org/1999/xlink" overflow="hidden"><defs><clipPath id="clip0"><rect x="0" y="0" width="1280" height="720"/></clipPath></defs><g clip-path="url(#clip0)"><rect x="0" y="0" width="1280" height="720" fill="#FFFFFF"/><rect x="267.5" y="94.5001" width="151" height="151" stroke="#FF0000" stroke-width="1.33333" stroke-miterlimit="8" fill="none"/><path d="M296.5 170.5C296.5 144.543 317.543 123.5 343.5 123.5 369.457 123.5 390.5 144.543 390.5 170.5 390.5 196.457 369.457 217.5 343.5 217.5 317.543 217.5 296.5 196.457 296.5 170.5Z" stroke="#FF0000" stroke-width="1.33333" stroke-miterlimit="8" fill="none" fill-rule="evenodd"/><rect x="116.5" y="94.5001" width="151" height="151" stroke="#000000" stroke-width="1.33333" stroke-miterlimit="8" fill="none"/><path d="M144.5 170.5C144.5 144.543 165.767 123.5 192 123.5 218.234 123.5 239.5 144.543 239.5 170.5 239.5 196.457 218.234 217.5 192 217.5 165.767 217.5 144.5 196.457 144.5 170.5Z" stroke="#000000" stroke-width="1.33333" stroke-miterlimit="8" fill="none" fill-rule="evenodd"/><rect x="478.5" y="132.5" width="152" height="113" stroke="#000000" stroke-width="1.33333" stroke-miterlimit="8" fill="none"/><rect x="507.5" y="56.5001" width="94" height="76" stroke="#000000" stroke-width="1.33333" stroke-miterlimit="8" fill="none"/><rect x="630.5" y="132.5" width="151" height="113" stroke="#FF0000" stroke-width="1.33333" stroke-miterlimit="8" fill="none"/><rect x="658.5" y="56.5001" width="94" height="76" stroke="#FF0000" stroke-width="1.33333" stroke-miterlimit="8" fill="none"/><path d="M82.5001 269.167 115.565 269.167 115.565 271.833 82.5 271.833ZM104.212 262.668 118.31 270.5 104.212 278.332C103.568 278.69 102.757 278.458 102.399 277.814 102.041 277.171 102.273 276.359 102.917 276.001L114.917 269.335 114.917 271.666 102.917 264.999C102.273 264.641 102.041 263.83 102.399 263.186 102.757 262.542 103.568 262.31 104.212 262.668Z"/><text font-family="Calibri,Calibri_MSFontService,sans-serif" font-style="italic" font-weight="700" font-size="32" transform="translate(116.236 281)">x<tspan font-size="32" x="-40.5555" y="-50">y</tspan></text><path d="M81.1668 270.311 81.1669 237.247 83.8335 237.247 83.8334 270.311ZM74.668 248.599 82.5002 234.501 90.3324 248.599C90.69 249.243 90.4581 250.055 89.8144 250.412 89.1706 250.77 88.3589 250.538 88.0013 249.894L81.3347 237.894 83.6657 237.894 76.999 249.894C76.6414 250.538 75.8297 250.77 75.186 250.412 74.5423 250.055 74.3103 249.243 74.668 248.599Z"/><path d="M449.5 270.167 482.565 270.167 482.565 272.833 449.5 272.833ZM471.212 263.668 485.31 271.5 471.212 279.332C470.568 279.69 469.757 279.458 469.399 278.814 469.041 278.171 469.273 277.359 469.917 277.001L481.917 270.335 481.917 272.666 469.917 265.999C469.273 265.641 469.041 264.83 469.399 264.186 469.757 263.542 470.568 263.31 471.212 263.668Z"/><text font-family="Calibri,Calibri_MSFontService,sans-serif" font-style="italic" font-weight="700" font-size="32" transform="translate(483.726 281)">x<tspan font-size="32" x="-40.5555" y="-49">z</tspan></text><path d="M448.167 271.311 448.167 238.247 450.834 238.247 450.833 271.311ZM441.668 249.599 449.5 235.501 457.332 249.599C457.69 250.243 457.458 251.055 456.814 251.412 456.171 251.77 455.359 251.538 455.001 250.894L448.335 238.894 450.666 238.894 443.999 250.894C443.641 251.538 442.83 251.77 442.186 251.412 441.542 251.055 441.31 250.243 441.668 249.599Z"/><path d="M1-2.66014e-06 1.00009 32.8-0.999913 32.8-1 2.66014e-06ZM4.00008 31.4667 0.000104987 39.4667-3.99992 31.4667Z" fill="#00B050" transform="matrix(-1.83697e-16 -1 -1 1.83697e-16 629.467 133)"/><path d="M1-2.66014e-06 1.00009 32.8-0.999913 32.8-1 2.66014e-06ZM4.00008 31.4667 0.000104987 39.4667-3.99992 31.4667Z" fill="#00B050" transform="matrix(-1.83697e-16 -1 -1 1.83697e-16 629.467 246)"/><path d="M1-2.66014e-06 1.00009 32.8-0.999913 32.8-1 2.66014e-06ZM4.00008 31.4667 0.000104987 39.4667-3.99992 31.4667Z" fill="#00B050" transform="matrix(-1.83697e-16 -1 -1 1.83697e-16 267.467 94)"/><path d="M1-2.66014e-06 1.00009 32.8-0.999913 32.8-1 2.66014e-06ZM4.00008 31.4667 0.000104987 39.4667-3.99992 31.4667Z" fill="#00B050" transform="matrix(-1.83697e-16 -1 -1 1.83697e-16 267.467 246)"/><path d="M1-2.66014e-06 1.00009 32.8-0.999913 32.8-1 2.66014e-06ZM4.00008 31.4667 0.000104987 39.4667-3.99992 31.4667Z" fill="#00B050" transform="matrix(1 0 0 -1 294 379.467)"/><text font-family="Calibri,Calibri_MSFontService,sans-serif" font-weight="400" font-size="37" transform="translate(303.804 372)">Normal <tspan font-size="37" x="121.5" y="0">Force </tspan><tspan font-family="Cambria Math,Cambria Math_MSFontService,sans-serif" font-size="37" x="213.107" y="0">𝐹</tspan><tspan font-family="Cambria Math,Cambria Math_MSFontService,sans-serif" font-size="27" x="228.647" y="8">𝑛</tspan></text></g></svg>