<svg width="1280" height="720" xmlns="http://www.w3.org/2000/svg" xmlns:xlink="http://www.w3.org/1999/xlink" overflow="hidden"><defs><clipPath id="clip0"><rect x="0" y="0" width="1280" height="720"/></clipPath></defs><g clip-path="url(#clip0)"><rect x="0" y="0" width="1280" height="720" fill="#FFFFFF"/><rect x="0" y="0" width="483" height="90" stroke="#000000" stroke-width="2" stroke-miterlimit="8" fill="#9DC3E6" transform="matrix(-1 0 0 1 786 258)"/><rect x="446" y="349" width="76" height="60" stroke="#000000" stroke-width="2" stroke-miterlimit="8" fill="#9DC3E6"/><rect x="325" y="348" width="76" height="61" stroke="#000000" stroke-width="2" stroke-miterlimit="8" fill="#9DC3E6"/><rect x="688" y="349" width="76" height="60" stroke="#000000" stroke-width="2" stroke-miterlimit="8" fill="#9DC3E6"/><rect x="567" y="349" width="76" height="60" stroke="#000000" stroke-width="2" stroke-miterlimit="8" fill="#9DC3E6"/><rect x="182" y="167" width="362" height="90" stroke="#000000" stroke-width="2" stroke-miterlimit="8" fill="#FFE699"/><rect x="446" y="258" width="76" height="60" stroke="#000000" stroke-width="2" stroke-miterlimit="8" fill="#FFE699"/><rect x="325" y="258" width="76" height="60" stroke="#000000" stroke-width="2" stroke-miterlimit="8" fill="#FFE699"/><rect x="204" y="258" width="76" height="60" stroke="#000000" stroke-width="2" stroke-miterlimit="8" fill="#FFE699"/><path d="M545.833 303.5 545.833 411.52 543.167 411.52 543.167 303.5ZM548.5 410.187 544.5 418.187 540.5 410.187Z"/><path d="M667.833 303.5 667.833 458.216 665.167 458.216 665.167 303.5ZM670.5 456.882 666.5 464.882 662.5 456.882Z"/><path d="M1.33333-7.78555e-07 1.33343 173.131-1.33323 173.131-1.33333 7.78555e-07ZM4.0001 171.798 0.000104987 179.798-3.9999 171.798Z" transform="matrix(1 0 0 -1 484.5 288.298)"/><path d="M1.33333-7.78555e-07 1.33343 173.131-1.33323 173.131-1.33333 7.78555e-07ZM4.0001 171.798 0.000104987 179.798-3.9999 171.798Z" transform="matrix(1 0 0 -1 363.5 288.298)"/><path d="M0 0 0.000104987 91.0881" stroke="#FF0000" stroke-width="2" stroke-miterlimit="8" stroke-dasharray="2 2" fill="none" fill-rule="evenodd" transform="matrix(1 0 0 -1 786 348.088)"/><path d="M0 0 0.698793 93.3233" stroke="#FF0000" stroke-width="2" stroke-miterlimit="8" stroke-dasharray="2 2" fill="none" fill-rule="evenodd" transform="matrix(1 0 0 -1 666 348.323)"/><text font-family="Cambria Math,Cambria Math_MSFontService,sans-serif" font-weight="400" font-size="24" transform="translate(486.315 437)">𝑚<tspan font-size="18" x="20.1667" y="5">𝑏</tspan><tspan font-size="24" x="32.1266" y="0">𝑔</tspan></text><path d="M8.83594-15.668 5.89453-13.125 5.27344-13.8281 7.14844-15.457 0-15.457 0-16.5586 7.14844-16.5586 5.27344-18.1875 5.89453-18.8906 8.83594-16.3477Z" transform="translate(524.061 437)"/><text font-family="Cambria Math,Cambria Math_MSFontService,sans-serif" font-weight="400" font-size="24" transform="translate(607.067 482)">𝑚<tspan font-size="18" x="20.1667" y="5">𝑤</tspan><tspan font-size="24" x="35.94" y="0">𝑔</tspan></text><path d="M8.83594-15.668 5.89453-13.125 5.27344-13.8281 7.14844-15.457 0-15.457 0-16.5586 7.14844-16.5586 5.27344-18.1875 5.89453-18.8906 8.83594-16.3477Z" transform="translate(648.627 482)"/><text font-family="Cambria Math,Cambria Math_MSFontService,sans-serif" font-weight="400" font-size="24" transform="translate(490.596 111)">𝐹<tspan font-size="18" x="10.5933" y="5">𝑓2</tspan></text><path d="M492.5 92.1667 507.355 92.1668 507.355 92.8335 492.5 92.8334ZM506.022 89.8335 511.355 92.5002 506.022 95.1668Z"/><text font-family="Cambria Math,Cambria Math_MSFontService,sans-serif" font-weight="400" font-size="24" transform="translate(371.051 111)">𝐹<tspan font-size="18" x="10.5934" y="5">𝑓1</tspan></text><path d="M372.5 92.1667 387.355 92.1668 387.355 92.8335 372.5 92.8334ZM386.022 89.8335 391.355 92.5002 386.022 95.1668Z"/><path d="M666.5 246.5 787.424 246.5" stroke="#000000" stroke-width="2.66667" stroke-miterlimit="8" fill="none" fill-rule="evenodd"/><path d="M666.5 233.5 666.5 257.69" stroke="#000000" stroke-width="2.66667" stroke-miterlimit="8" fill="none" fill-rule="evenodd"/><path d="M786.5 233.5 786.5 257.69" stroke="#000000" stroke-width="2.66667" stroke-miterlimit="8" fill="none" fill-rule="evenodd"/><text font-family="Cambria Math,Cambria Math_MSFontService,sans-serif" font-weight="400" font-size="24" transform="translate(720.559 242)">𝑙</text></g></svg>